<svg version="1.1" id="Layer_1" xmlns="http://www.w3.org/2000/svg" xmlns:xlink="http://www.w3.org/1999/xlink" x="0px" y="0px"
	 width="100%" viewBox="0 0 1080 607" enable-background="new 0 0 1080 607" xml:space="preserve">
<path fill="#000000" opacity="1.000000" stroke="none" 
	d="
M451.000000,608.000000 
	C301.042328,608.000000 151.084686,608.000000 1.063515,608.000000 
	C1.063515,405.766144 1.063515,203.532257 1.063515,1.000000 
	C151.024765,1.000000 301.049744,1.000000 451.662720,1.366762 
	C448.795502,3.016793 445.075775,3.845471 441.936646,5.671972 
	C433.812103,10.399272 425.334991,14.820028 418.102325,20.716915 
	C404.013428,32.203804 395.439819,47.597527 389.872101,64.799049 
	C385.949493,76.917877 384.745819,89.204323 385.910553,101.869591 
	C387.070984,114.488022 391.352203,126.029045 397.185883,137.476944 
	C396.328156,142.597610 395.259186,147.410248 394.309235,152.246277 
	C393.818085,154.746902 394.224518,157.691040 393.028168,159.733521 
	C389.994659,164.912369 377.885254,168.211502 371.903687,165.658661 
	C359.960236,161.313339 348.410736,156.380432 336.373627,153.451706 
	C317.184998,148.782944 298.585236,153.226364 280.939667,160.871689 
	C271.221741,165.082214 262.360321,171.187057 254.963394,179.043015 
	C246.133591,188.420761 238.839630,198.754761 235.042648,211.248413 
	C231.350601,223.396744 229.107788,235.809479 232.096893,248.324280 
	C234.438599,258.128510 237.277451,267.977356 241.375900,277.144501 
	C244.391815,283.890259 249.701965,289.638641 254.168701,295.699646 
	C258.881195,302.094177 259.346954,305.205750 254.951172,311.810333 
	C251.417892,317.118958 246.615448,321.662201 243.569412,327.201263 
	C233.666489,345.209381 228.090530,364.345917 232.094955,385.101959 
	C235.572266,403.125824 243.390167,418.889099 257.338226,431.383148 
	C267.026611,440.061493 277.923553,446.283264 290.123322,450.747223 
	C302.352539,455.221985 314.827240,458.333069 327.773315,457.838684 
	C335.586273,457.540344 343.322327,455.227417 351.484680,453.868774 
	C352.983337,454.158234 354.184570,454.198944 355.182404,454.670288 
	C364.261353,458.958344 373.798370,461.286285 383.809326,462.070526 
	C387.415985,462.353088 389.982269,465.001923 390.656189,468.480225 
	C391.772400,474.241547 392.312378,480.114471 392.912964,486.264252 
	C388.216736,497.882416 385.812500,509.483826 385.837738,521.774292 
	C385.888611,546.543579 395.415833,567.183777 412.270935,584.680542 
	C422.022644,594.803528 433.778687,601.878052 447.565674,605.360779 
	C448.850677,605.685425 449.861725,607.094482 451.000000,608.000000 
z"/>
<path fill="#000000" opacity="1.000000" stroke="none" 
	d="
M631.000000,0.999999 
	C780.957581,1.000000 930.915222,1.000000 1080.936401,1.000000 
	C1080.936401,203.233734 1080.936401,405.467468 1080.936401,608.000000 
	C931.308594,608.000000 781.616943,608.000000 631.382446,607.622742 
	C633.347778,606.244141 635.838318,605.195801 638.367004,604.249268 
	C651.677368,599.267090 663.261597,591.542908 672.399353,580.771912 
	C687.670837,562.770813 696.094849,541.742798 696.896912,518.081726 
	C697.398438,503.288330 693.151672,489.336700 687.083374,475.508301 
	C687.362122,473.195282 688.027649,471.281433 687.953674,469.396576 
	C687.751282,464.247101 689.928650,460.735107 694.865051,459.553253 
	C699.121338,458.534180 703.725464,458.786255 707.858582,457.475830 
	C714.379211,455.408447 720.634155,452.502899 727.179993,450.262909 
	C736.269165,452.714081 745.081238,455.780334 754.117371,456.742615 
	C763.756287,457.769073 773.424683,456.616882 783.176575,454.426147 
	C798.565063,450.969208 811.724670,443.694397 823.304810,433.786011 
	C832.454590,425.957153 839.123535,415.867462 844.317017,404.680695 
	C851.684753,388.810455 852.726440,372.342224 849.516113,355.806580 
	C846.515747,340.352173 839.792114,326.219666 828.534241,314.612244 
	C823.076904,308.985474 822.827454,302.964874 827.887085,296.510651 
	C836.883118,285.034912 844.386963,272.977264 848.220764,258.617737 
	C851.418640,246.639893 852.031250,234.627441 849.718140,222.770233 
	C845.032471,198.751221 831.395691,180.518204 810.848511,167.460434 
	C800.234619,160.715302 788.542419,156.408951 776.315918,153.700134 
	C763.563599,150.874863 750.594849,150.552643 737.950073,153.714935 
	C728.468262,156.086212 719.365295,159.972214 709.623840,163.119415 
	C706.661316,163.033661 704.118347,163.320175 701.687012,162.923080 
	C697.400330,162.222977 692.845459,161.574509 691.676514,156.155457 
	C689.798218,147.447754 687.947693,138.734024 686.401062,129.853714 
	C689.084839,122.852318 691.893127,116.135727 693.725586,109.162682 
	C697.094849,96.341675 697.436646,83.299911 694.137146,70.392044 
	C692.516846,64.053101 690.288574,57.852589 688.055725,51.690823 
	C683.744324,39.793308 676.245422,29.754477 666.848816,21.760933 
	C657.125244,13.489209 646.231567,6.453383 633.448364,3.230873 
	C632.504700,2.993008 631.810303,1.766757 631.000000,0.999999 
z"/>
<path fill="#4E2A84" opacity="1.000000" stroke="none" 
	d="
M630.531372,0.999999 
	C631.810303,1.766757 632.504700,2.993008 633.448364,3.230873 
	C646.231567,6.453383 657.125244,13.489209 666.848816,21.760933 
	C676.245422,29.754477 683.744324,39.793308 688.055725,51.690823 
	C690.288574,57.852589 692.516846,64.053101 694.137146,70.392044 
	C697.436646,83.299911 697.094849,96.341675 693.725586,109.162682 
	C691.893127,116.135727 689.084839,122.852318 686.125244,129.867798 
	C684.091980,127.959122 682.498352,125.954742 681.234009,123.760582 
	C675.006104,112.952637 666.650940,104.244560 655.413147,98.766472 
	C624.271484,83.585800 581.590149,97.544937 564.483154,128.680908 
	C560.504395,135.922562 557.419250,143.773315 554.885742,151.653320 
	C552.878906,157.895401 552.345215,164.611115 551.151978,171.083572 
	C551.146606,171.050644 551.213196,171.049911 551.003662,171.084412 
	C550.543823,171.300339 550.431152,171.544998 550.206909,172.125916 
	C541.108826,179.011200 539.564331,178.993317 532.521729,171.791748 
	C530.188843,153.692230 525.303528,136.848953 515.136230,121.936867 
	C500.361481,100.266968 473.263184,88.589592 445.945709,94.681068 
	C424.668457,99.425644 410.197083,112.951309 400.816742,132.327759 
	C399.942535,134.133545 398.306366,135.570435 397.023956,137.178619 
	C391.352203,126.029045 387.070984,114.488022 385.910553,101.869591 
	C384.745819,89.204323 385.949493,76.917877 389.872101,64.799049 
	C395.439819,47.597527 404.013428,32.203804 418.102325,20.716915 
	C425.334991,14.820028 433.812103,10.399272 441.936646,5.671972 
	C445.075775,3.845471 448.795502,3.016793 452.125366,1.366762 
	C465.354218,1.000000 478.708466,1.000000 492.476959,1.375879 
	C493.959351,2.462865 494.940857,3.568180 496.108856,3.824776 
	C509.436371,6.752666 520.794739,13.584107 531.203125,21.978683 
	C538.585449,27.932682 544.932556,27.277493 550.994507,22.201794 
	C561.320618,13.555620 572.504578,6.969477 585.585938,3.617354 
	C586.863647,3.289936 587.868469,1.897878 589.000000,1.000004 
	C602.687561,1.000000 616.375122,1.000000 630.531372,0.999999 
z"/>
<path fill="#4E2A84" opacity="1.000000" stroke="none" 
	d="
M687.132751,475.920685 
	C693.151672,489.336700 697.398438,503.288330 696.896912,518.081726 
	C696.094849,541.742798 687.670837,562.770813 672.399353,580.771912 
	C663.261597,591.542908 651.677368,599.267090 638.367004,604.249268 
	C635.838318,605.195801 633.347778,606.244141 630.919800,607.622742 
	C616.979126,608.000000 602.958191,608.000000 588.570068,607.618530 
	C585.044434,606.137878 581.832520,605.170898 578.737549,603.915283 
	C568.543701,599.779724 559.202820,594.308655 550.620483,587.293030 
	C543.055176,581.108704 539.089722,580.993958 531.348145,587.216797 
	C521.163879,595.403198 510.359467,602.135986 497.481049,605.173828 
	C496.487122,605.408325 495.819366,607.025513 495.000000,608.000000 
	C493.933319,608.000000 492.866669,608.000000 491.362579,607.838135 
	C490.616791,607.784180 490.308380,607.892090 490.000000,608.000000 
	C477.312439,608.000000 464.624878,608.000000 451.468658,608.000000 
	C449.861725,607.094482 448.850677,605.685425 447.565674,605.360779 
	C433.778687,601.878052 422.022644,594.803528 412.270935,584.680542 
	C395.415833,567.183777 385.888611,546.543579 385.837738,521.774292 
	C385.812500,509.483826 388.216736,497.882416 393.216003,486.436584 
	C394.554230,487.822937 395.647552,489.276093 396.224426,490.911438 
	C405.405975,516.940308 432.505707,534.702698 459.406830,531.634155 
	C503.796906,526.570679 527.011658,493.381195 532.106689,451.794434 
	C540.308228,445.062561 542.511169,445.100861 549.220215,452.217773 
	C551.439636,469.833923 556.076355,486.333282 565.887451,500.786957 
	C581.464172,523.734497 603.789490,533.791138 630.922241,529.984985 
	C657.973938,526.190125 675.173645,509.365845 683.901855,483.683075 
	C684.801697,481.035400 686.047485,478.505341 687.132751,475.920685 
z"/>
<path fill="#000000" opacity="1.000000" stroke="none" 
	d="
M588.531372,1.000004 
	C587.868469,1.897878 586.863647,3.289936 585.585938,3.617354 
	C572.504578,6.969477 561.320618,13.555620 550.994507,22.201794 
	C544.932556,27.277493 538.585449,27.932682 531.203125,21.978683 
	C520.794739,13.584107 509.436371,6.752666 496.108856,3.824776 
	C494.940857,3.568180 493.959351,2.462865 492.945618,1.375879 
	C524.687561,1.000000 556.375122,1.000000 588.531372,1.000004 
z"/>
<path fill="#000000" opacity="1.000000" stroke="none" 
	d="
M495.468658,608.000000 
	C495.819366,607.025513 496.487122,605.408325 497.481049,605.173828 
	C510.359467,602.135986 521.163879,595.403198 531.348145,587.216797 
	C539.089722,580.993958 543.055176,581.108704 550.620483,587.293030 
	C559.202820,594.308655 568.543701,599.779724 578.737549,603.915283 
	C581.832520,605.170898 585.044434,606.137878 588.101440,607.618530 
	C557.312439,608.000000 526.624878,608.000000 495.468658,608.000000 
z"/>
<path fill="#000000" opacity="1.000000" stroke="none" 
	d="
M490.250000,608.000000 
	C490.308380,607.892090 490.616791,607.784180 490.962585,607.838135 
	C491.000000,608.000000 490.500000,608.000000 490.250000,608.000000 
z"/>
<path fill="#4E2A84" opacity="1.000000" stroke="none" 
	d="
M351.092926,453.819702 
	C343.322327,455.227417 335.586273,457.540344 327.773315,457.838684 
	C314.827240,458.333069 302.352539,455.221985 290.123322,450.747223 
	C277.923553,446.283264 267.026611,440.061493 257.338226,431.383148 
	C243.390167,418.889099 235.572266,403.125824 232.094955,385.101959 
	C228.090530,364.345917 233.666489,345.209381 243.569412,327.201263 
	C246.615448,321.662201 251.417892,317.118958 254.951172,311.810333 
	C259.346954,305.205750 258.881195,302.094177 254.168701,295.699646 
	C249.701965,289.638641 244.391815,283.890259 241.375900,277.144501 
	C237.277451,267.977356 234.438599,258.128510 232.096893,248.324280 
	C229.107788,235.809479 231.350601,223.396744 235.042648,211.248413 
	C238.839630,198.754761 246.133591,188.420761 254.963394,179.043015 
	C262.360321,171.187057 271.221741,165.082214 280.939667,160.871689 
	C298.585236,153.226364 317.184998,148.782944 336.373627,153.451706 
	C348.410736,156.380432 359.960236,161.313339 371.846802,166.022064 
	C370.401520,167.697479 368.956573,169.016190 367.256317,169.649994 
	C344.965179,177.959732 328.728149,192.855377 324.469269,216.469040 
	C316.192200,262.362183 346.423401,300.172028 399.616516,304.709961 
	C404.970490,310.196075 405.125824,312.692566 400.783356,318.161591 
	C399.241089,320.103973 397.747711,322.085114 395.796661,323.973206 
	C380.847076,325.935181 367.355042,330.950867 354.755066,338.293976 
	C316.192200,360.768066 304.672394,420.138977 348.632172,449.946381 
	C349.793793,450.734039 350.287659,452.506500 351.092926,453.819702 
z"/>
<path fill="#6D58F0" opacity="1.000000" stroke="none" 
	d="
M351.484680,453.868774 
	C350.287659,452.506500 349.793793,450.734039 348.632172,449.946381 
	C304.672394,420.138977 316.192200,360.768066 354.755066,338.293976 
	C367.355042,330.950867 380.847076,325.935181 395.736481,324.345581 
	C395.521057,326.168671 394.906494,327.534271 394.343567,328.920807 
	C388.075470,344.359314 391.035522,364.672363 406.979156,375.765594 
	C425.038055,388.330627 443.725800,388.668488 462.906708,378.288086 
	C477.158051,370.575439 488.559418,359.383331 500.039490,348.267822 
	C502.668976,345.721832 505.147827,342.994202 507.973602,340.690704 
	C509.012177,339.844116 510.853455,339.982269 512.328613,339.671265 
	C512.120361,341.287720 512.107910,342.965759 511.626740,344.496460 
	C511.359680,345.346191 510.286896,345.928894 509.616791,346.667786 
	C501.237640,355.907440 492.499146,364.852509 484.589081,374.478119 
	C475.656921,385.347504 468.445892,397.255859 466.407532,411.664001 
	C462.931366,436.234680 482.169373,458.622223 506.807770,459.061646 
	C516.047485,459.226440 524.041260,456.204437 531.905762,452.085358 
	C527.011658,493.381195 503.796906,526.570679 459.406830,531.634155 
	C432.505707,534.702698 405.405975,516.940308 396.224426,490.911438 
	C395.647552,489.276093 394.554230,487.822937 393.398163,486.112732 
	C392.312378,480.114471 391.772400,474.241547 390.656189,468.480225 
	C389.982269,465.001923 387.415985,462.353088 383.809326,462.070526 
	C373.798370,461.286285 364.261353,458.958344 355.182404,454.670288 
	C354.184570,454.198944 352.983337,454.158234 351.484680,453.868774 
z"/>
<path fill="#6D58F0" opacity="1.000000" stroke="none" 
	d="
M399.318787,304.517242 
	C346.423401,300.172028 316.192200,262.362183 324.469269,216.469040 
	C328.728149,192.855377 344.965179,177.959732 367.256317,169.649994 
	C368.956573,169.016190 370.401520,167.697479 372.022003,166.333694 
	C377.885254,168.211502 389.994659,164.912369 393.028168,159.733521 
	C394.224518,157.691040 393.818085,154.746902 394.309235,152.246277 
	C395.259186,147.410248 396.328156,142.597610 397.185883,137.476959 
	C398.306366,135.570435 399.942535,134.133545 400.816742,132.327759 
	C410.197083,112.951309 424.668457,99.425644 445.945709,94.681068 
	C473.263184,88.589592 500.361481,100.266968 515.136230,121.936867 
	C525.303528,136.848953 530.188843,153.692230 532.192627,171.753998 
	C516.934692,163.252594 501.619385,161.578140 486.554565,171.039658 
	C465.561707,184.224350 460.086975,211.168045 473.059540,233.996735 
	C482.396820,250.428131 495.677612,263.496368 508.867584,276.683594 
	C510.835938,278.651581 515.078430,280.283142 512.078186,284.064484 
	C511.699921,284.541199 507.107910,282.362457 505.042664,280.700256 
	C492.361328,270.493835 480.313110,259.432770 467.132019,249.936050 
	C455.798309,241.770355 442.812012,236.932297 428.215057,238.954453 
	C408.216461,241.724884 388.054230,257.803711 391.873932,284.698608 
	C392.842712,291.519684 396.757629,297.922333 399.318787,304.517242 
z"/>
<path fill="#4E2A84" opacity="1.000000" stroke="none" 
	d="
M710.093628,163.183807 
	C719.365295,159.972214 728.468262,156.086212 737.950073,153.714935 
	C750.594849,150.552643 763.563599,150.874863 776.315918,153.700134 
	C788.542419,156.408951 800.234619,160.715302 810.848511,167.460434 
	C831.395691,180.518204 845.032471,198.751221 849.718140,222.770233 
	C852.031250,234.627441 851.418640,246.639893 848.220764,258.617737 
	C844.386963,272.977264 836.883118,285.034912 827.887085,296.510651 
	C822.827454,302.964874 823.076904,308.985474 828.534241,314.612244 
	C839.792114,326.219666 846.515747,340.352173 849.516113,355.806580 
	C852.726440,372.342224 851.684753,388.810455 844.317017,404.680695 
	C839.123535,415.867462 832.454590,425.957153 823.304810,433.786011 
	C811.724670,443.694397 798.565063,450.969208 783.176575,454.426147 
	C773.424683,456.616882 763.756287,457.769073 754.117371,456.742615 
	C745.081238,455.780334 736.269165,452.714081 727.288574,449.946594 
	C729.293152,447.682312 731.358643,446.033691 733.443665,444.409943 
	C746.234497,434.448669 755.832764,422.072876 757.920654,405.749329 
	C764.044128,357.875000 733.093811,324.107361 681.999084,319.192139 
	C676.839417,313.510681 676.748108,311.247986 681.147278,305.711945 
	C682.479736,304.035126 683.769043,302.323914 685.459229,300.609467 
	C701.535278,297.710541 716.689636,293.094788 729.869324,283.905060 
	C752.457703,268.154877 763.613831,246.255661 760.565125,218.735535 
	C757.534973,191.383530 741.013306,174.456436 715.281799,165.960739 
	C713.446838,165.354919 711.818176,164.124039 710.093628,163.183807 
z"/>
<path fill="#6D58F0" opacity="1.000000" stroke="none" 
	d="
M709.623840,163.119415 
	C711.818176,164.124039 713.446838,165.354919 715.281799,165.960739 
	C741.013306,174.456436 757.534973,191.383530 760.565125,218.735535 
	C763.613831,246.255661 752.457703,268.154877 729.869324,283.905060 
	C716.689636,293.094788 701.535278,297.710541 685.503052,300.286011 
	C698.783020,275.291534 686.061890,248.688538 659.052795,240.416458 
	C644.214905,235.872040 631.128967,239.619354 618.423279,246.722885 
	C604.188232,254.681458 592.346375,265.704987 580.683594,276.918671 
	C578.283325,279.226501 575.985962,281.671631 573.375366,283.713684 
	C572.481018,284.413330 570.774353,284.074402 569.438782,284.209991 
	C569.466675,282.830200 569.255066,281.385162 569.607056,280.093719 
	C569.839417,279.241272 570.874451,278.602356 571.563110,277.880249 
	C576.505493,272.698029 581.561890,267.619324 586.373474,262.318390 
	C596.928101,250.690231 606.693359,238.554810 612.548462,223.671677 
	C624.417664,193.501450 601.155029,161.581833 570.060608,165.293488 
	C563.619629,166.062332 557.451294,169.115921 551.157349,171.116501 
	C552.345215,164.611115 552.878906,157.895401 554.885742,151.653320 
	C557.419250,143.773315 560.504395,135.922562 564.483154,128.680908 
	C581.590149,97.544937 624.271484,83.585800 655.413147,98.766472 
	C666.650940,104.244560 675.006104,112.952637 681.234009,123.760582 
	C682.498352,125.954742 684.091980,127.959122 685.809692,130.036926 
	C687.947693,138.734024 689.798218,147.447754 691.676514,156.155457 
	C692.845459,161.574509 697.400330,162.222977 701.687012,162.923080 
	C704.118347,163.320175 706.661316,163.033661 709.623840,163.119415 
z"/>
<path fill="#6D58F0" opacity="1.000000" stroke="none" 
	d="
M682.275818,319.355103 
	C733.093811,324.107361 764.044128,357.875000 757.920654,405.749329 
	C755.832764,422.072876 746.234497,434.448669 733.443665,444.409943 
	C731.358643,446.033691 729.293152,447.682312 727.110107,449.635803 
	C720.634155,452.502899 714.379211,455.408447 707.858582,457.475830 
	C703.725464,458.786255 699.121338,458.534180 694.865051,459.553253 
	C689.928650,460.735107 687.751282,464.247101 687.953674,469.396576 
	C688.027649,471.281433 687.362122,473.195282 687.083374,475.508301 
	C686.047485,478.505341 684.801697,481.035400 683.901855,483.683075 
	C675.173645,509.365845 657.973938,526.190125 630.922241,529.984985 
	C603.789490,533.791138 581.464172,523.734497 565.887451,500.786957 
	C556.076355,486.333282 551.439636,469.833923 549.562012,452.272156 
	C578.767822,469.752625 610.824585,453.059814 615.614563,420.153656 
	C617.596497,406.537567 612.793701,394.450165 604.894836,384.224548 
	C594.557800,370.842529 582.603394,358.715210 571.514465,345.901306 
	C570.224731,344.410980 570.012878,341.987823 569.301270,339.997162 
	C571.247314,340.573639 573.656372,340.609772 575.063232,341.815399 
	C583.401123,348.960754 591.242859,356.701477 599.753784,363.624481 
	C611.684387,373.329102 624.326172,381.958588 639.975952,384.725189 
	C665.529907,389.242676 689.264160,371.586700 690.645691,347.017761 
	C691.221741,336.771820 687.778625,327.755096 682.275818,319.355103 
z"/>
<path fill="#FEFEFE" opacity="1.000000" stroke="none" 
	d="
M681.999084,319.192139 
	C687.778625,327.755096 691.221741,336.771820 690.645691,347.017761 
	C689.264160,371.586700 665.529907,389.242676 639.975952,384.725189 
	C624.326172,381.958588 611.684387,373.329102 599.753784,363.624481 
	C591.242859,356.701477 583.401123,348.960754 575.063232,341.815399 
	C573.656372,340.609772 571.247314,340.573639 569.301270,339.997162 
	C570.012878,341.987823 570.224731,344.410980 571.514465,345.901306 
	C582.603394,358.715210 594.557800,370.842529 604.894836,384.224548 
	C612.793701,394.450165 617.596497,406.537567 615.614563,420.153656 
	C610.824585,453.059814 578.767822,469.752625 549.622925,451.853149 
	C542.511169,445.100861 540.308228,445.062561 532.106689,451.794434 
	C524.041260,456.204437 516.047485,459.226440 506.807770,459.061646 
	C482.169373,458.622223 462.931366,436.234680 466.407532,411.664001 
	C468.445892,397.255859 475.656921,385.347504 484.589081,374.478119 
	C492.499146,364.852509 501.237640,355.907440 509.616791,346.667786 
	C510.286896,345.928894 511.359680,345.346191 511.626740,344.496460 
	C512.107910,342.965759 512.120361,341.287720 512.328613,339.671265 
	C510.853455,339.982269 509.012177,339.844116 507.973602,340.690704 
	C505.147827,342.994202 502.668976,345.721832 500.039490,348.267822 
	C488.559418,359.383331 477.158051,370.575439 462.906708,378.288086 
	C443.725800,388.668488 425.038055,388.330627 406.979156,375.765594 
	C391.035522,364.672363 388.075470,344.359314 394.343567,328.920807 
	C394.906494,327.534271 395.521057,326.168671 396.171814,324.420959 
	C397.747711,322.085114 399.241089,320.103973 400.783356,318.161591 
	C405.125824,312.692566 404.970490,310.196075 399.616516,304.709961 
	C396.757629,297.922333 392.842712,291.519684 391.873932,284.698608 
	C388.054230,257.803711 408.216461,241.724884 428.215057,238.954453 
	C442.812012,236.932297 455.798309,241.770355 467.132019,249.936050 
	C480.313110,259.432770 492.361328,270.493835 505.042664,280.700256 
	C507.107910,282.362457 511.699921,284.541199 512.078186,284.064484 
	C515.078430,280.283142 510.835938,278.651581 508.867584,276.683594 
	C495.677612,263.496368 482.396820,250.428131 473.059540,233.996735 
	C460.086975,211.168045 465.561707,184.224350 486.554565,171.039658 
	C501.619385,161.578140 516.934692,163.252594 532.153320,172.158813 
	C539.564331,178.993317 541.108826,179.011200 550.420410,172.101349 
	C551.182678,171.635742 551.292603,171.384476 551.213196,171.049911 
	C551.213196,171.049911 551.146606,171.050644 551.151978,171.083572 
	C557.451294,169.115921 563.619629,166.062332 570.060608,165.293488 
	C601.155029,161.581833 624.417664,193.501450 612.548462,223.671677 
	C606.693359,238.554810 596.928101,250.690231 586.373474,262.318390 
	C581.561890,267.619324 576.505493,272.698029 571.563110,277.880249 
	C570.874451,278.602356 569.839417,279.241272 569.607056,280.093719 
	C569.255066,281.385162 569.466675,282.830200 569.438782,284.209991 
	C570.774353,284.074402 572.481018,284.413330 573.375366,283.713684 
	C575.985962,281.671631 578.283325,279.226501 580.683594,276.918671 
	C592.346375,265.704987 604.188232,254.681458 618.423279,246.722885 
	C631.128967,239.619354 644.214905,235.872040 659.052795,240.416458 
	C686.061890,248.688538 698.783020,275.291534 685.122070,300.304993 
	C683.769043,302.323914 682.479736,304.035126 681.147278,305.711945 
	C676.748108,311.247986 676.839417,313.510681 681.999084,319.192139 
z"/>
<path fill="#6D58F0" opacity="1.000000" stroke="none" 
	d="
M551.003662,171.084412 
	C551.292603,171.384476 551.182678,171.635742 550.669800,171.828308 
	C550.431152,171.544998 550.543823,171.300339 551.003662,171.084412 
z"/>
</svg>